<?xml version="1.0" encoding="UTF-8"?><svg id="Layer_2" xmlns="http://www.w3.org/2000/svg" xmlns:xlink="http://www.w3.org/1999/xlink" viewBox="0 0 1070.52 635.36"><defs><linearGradient id="linear-gradient" x1="759.25" y1="47.24" x2="642.7" y2="322.38" gradientUnits="userSpaceOnUse"><stop offset="0" stop-color="#06b6ed"/><stop offset="1" stop-color="#0434a5"/></linearGradient><linearGradient id="linear-gradient-2" x1="542.99" y1="262.29" x2="476.67" y2="434.21" xlink:href="#linear-gradient"/><linearGradient id="linear-gradient-3" x1="93.99" y1="626.24" x2="1141.92" y2="626.24" gradientUnits="userSpaceOnUse"><stop offset=".77" stop-color="#06b6ed"/><stop offset="1" stop-color="#0434a5"/></linearGradient><linearGradient id="linear-gradient-4" x1="1384.44" y1="486.99" x2="532.21" y2="486.99" gradientUnits="userSpaceOnUse"><stop offset="0" stop-color="#06b6ed"/><stop offset=".29" stop-color="#058dd6"/><stop offset=".77" stop-color="#044db2"/><stop offset="1" stop-color="#0434a5"/></linearGradient></defs><g id="Layer_1-2"><rect x="921.2" y="565.96" width="115.13" height="5.3" fill="#146ac2"/><rect x="54.82" y="565.96" width="115.63" height="5.3" fill="#1570c8"/><polygon points="450.88 183.94 456.15 189.02 473.27 205.54 489.19 220.82 498.28 229.24 450.79 281.57 408.63 241.96 324.8 162.97 324.75 386.91 257.43 386.75 257.36 0 273.37 14.89 351.22 88.7 374.24 110.54 434.18 168.01 450.88 183.94" fill="#fcfdfd"/><path d="M771.15,386.88l-93.69-.03-96.11-107.5-49.01-54.99,14.77-15.44,33.27-35.67,33.35,35.03,14.49,15.11c25.88,27.31,50.97,54.91,75.44,83.6l44.22,51.89,23.27,28.01Z" fill="#fdfdfd"/><path d="M583.13,38.06c25.23-.54,51.37-.51,76.62-.03h22.58c14.15-.51,28.78-.49,42.95-.03,10.73,0,21.03,2.64,31.51,6.52,26.55,9.84,48.84,29.14,62.08,54.21,8.6,16.29,13.48,33.71,14.34,51.96v12.91c-1,27.62-12.17,52.68-30.83,72.95-9.88,10.73-21.89,18.98-35.2,25.25l9.28,11.64,9.38,11.38,13.4,16.7,12.55,16.18c1.97,2.54,4.7,4.3,6.19,7.27l17.91,22.55,29.93,39.4c-26.16.14-52.31.03-78.45-.32l-23.16-28.76-47.71-57.55c-18.37-22.16-37.17-43.36-56.71-64.43l-18.6-20.05-8.48-9.29,64.02-.4,26.56-.46c15.5-1.11,28.2-10.26,35.53-23.83,10.88-20.13,6.45-45.47-10.58-60.78-6.4-5.83-13.81-8.47-22.02-11.13-30.77.21-61.52.17-92.27-.11l-10.38.25-16.07.11-13.63,13.96-9.5,10.25-81.12,89.42-5,5.47-1.34.43c-15.57-14.6-31.01-29.36-46.32-44.28l.25-1.46c1.8-3.03,4.17-5.09,6.56-7.74l41.19-45.65,24.57-27.61,56.6-63.19c1.18-1.32,1.96-1.69,3.32-1.69Z" fill="url(#linear-gradient)"/><path d="M726.24,109.9l-90.97.44c-.8,0-1.1-.24-1.3-.55l92.27.11Z" fill="#0281da"/><path d="M865.83,386.91l-76.27.23c-.83,0-1.85-.15-2.17-.55l78.45.32Z" fill="#0134aa"/><path d="M659.75,38.02l-76.62.03c.22-.35.54-.6,1.31-.6h74.02c.77,0,1.09.24,1.3.57Z" fill="#029ee6"/><path d="M725.28,38l-42.95.02c.19-.32.57-.57,1.26-.57h40.43c.68,0,1.07.25,1.27.55Z" fill="#029ee6"/><path d="M534.07,304.34l-7.08,18.23-.03.07-11,28.91h0s0,0,0,0l-13.42,35.13-9.58,24.09c-.87,2.19-2.47,4.78-4.82,5.52-2.38.75-5.88-.96-6.88-3.11-1.26-2.73-.2-5.62.86-8.34l22.45-57.73s0,0,0,0l11.85-29.75-.04.14.05-.14,5.23-15.01c.66-1.9,1.69-3.66,2.8-4.51,1.7-1.31,3.97-1.15,6.07-.64,2.76.66,4.64,4.28,3.54,7.14ZM453.37,377.27l-14.05-13.42-7.02-6.81,9.09-8.85,8.37-8.21s0,0,0,0c0,0,0,0,0,0,1.02-1,1.68-2.39,3.06-2.98,2.53-1.08,4.24-3.65,6.16-5.59,1.29-1.3,2.92-2.23,3.97-4.49-4.13-4.38-8.22-10.1-10.92-7.33l-7.83,8.04h0c-.35.02-.99.13-1.39.52l-12.1,11.8-15.15,14.82c-.77.75-1.3,1.77-1.28,2.64.02.86.72,2.18,1.58,2.95l9.66,8.68,15.01,14.38,12.51,12.06c.83.8,2.53.08,3.22-.61l6.75-6.79c.5-.51-.43-1.95-.85-2.37l-8.77-8.46ZM597.39,354.51l-6.27-6.03-11.18-10.83c-.77-.74-1.3-1.47-2.34-1.5h0s-7.65-7.51-7.65-7.51l-10.96-10.36-9.17,8.77,8.68,8.69s0,0,0,0l6.35,5.96,9.98,9.6,5.96,5.68c-.71,1.56-2.16,2.04-3.22,3.07l-15.22,14.76-12.63,12.36c2.51,3.48,5.5,6.23,9.15,8.7l6.53-5.78,14.69-14.02,10.63-10.24c3.88-3.74,10.43-7.7,6.65-11.33Z" fill="url(#linear-gradient-2)"/><path d="M397.61,555.69c-.16.21-.45.51-.61,1.31l-6.75,23-7.55-24.36c-.17-.54-2.17-.49-2.37.15l-7.36,23.93-7-23.76c-.17-.57-.78-.62-1.08-.68-.38-.08-.95.15-.76.82l7.56,26.47c.15.45,2.13.43,2.27-.02l7.62-24.9,7.45,24.86c.2.66,1.46.47,1.84.15.31-.26.68-.59.89-1.29l7.6-25.73c-.48-.53-1.43-.37-1.75.05Z" fill="#fcfdfd"/><path d="M677.95,569.57l12.35-.03c.62,0,1.1-.52,1.1-.9,0-.4-.44-.86-1.1-.88l-12.47-.22.08-10.45,15.08-.15c.36-.19.28-1.59-.09-1.59l-17.03-.08-.03,27.37,17.59-.28v-1.23s-15.5-.35-15.5-.35l.03-11.21Z" fill="#fcfdfd"/><path d="M225.21,568.71l-8.39-1.95c-1.66-.38-2.99-1.59-3.33-2.64-.56-1.7-.25-3.42.71-4.76,1.48-2.07,4.06-2.47,6.48-2.6,4.25-.22,6.47,2.18,8.56,6.28,1.97-3.57-1.47-6.57-4.46-7.3-3.02-.74-6.18-.72-8.98.29-3.08,1.11-4.73,4.04-4.45,7.05.25,2.71,2.48,4.72,5.47,5.46l8.81,2.17c1.73.43,2.98,1.81,3.31,3.17.36,1.46.16,3.09-.76,4.38-1.85,2.58-5,3.17-8.07,2.93-4.12-.33-6.94-2.47-8.55-6.81-1.47,2.67.26,4.91,2.36,6.36,4.19,2.9,10.7,3.25,14.83-.22,2.39-2,2.53-5.22,1.82-7.55-.67-2.18-2.82-3.68-5.34-4.26Z" fill="#fcfdfd"/><path d="M616.07,580.84l-14.4-.11.15-11.01,12.84-.21c.85-.01.73-1.65.24-1.66l-13.23-.14-.07-10.58,13.96-.02c.75,0,1.2-.33,1.28-.76.14-.69-.33-1.1-1.18-1.1l-15.97.07-.02,27.26,16.6.02c.54,0,.69-.81.57-1.06-.1-.21-.21-.7-.77-.7Z" fill="#fcfdfd"/><path d="M513.22,580.82l-14.67-.02.04-11.23,13.51-.29c.46,0,.23-1.64-.57-1.63l-12.92.07.04-10.49c6.72-1.29,14.84.78,15.21-.92.12-.57-.21-1.14-1.07-1.14l-16.13.07-.03,27.36h16.77c.54-.01.69-.8.57-1.07-.1-.22-.21-.72-.75-.72Z" fill="#fcfdfd"/><path d="M847.02,556.05c-6.12-1.2-11.69-.41-17.73-.74l-.14,27.29,16.85.03c.78,0,1.1-1.34.44-1.78l-15.34-.1-.02-11.23,12.35.03c.92,0,1.36-.2,1.47-.92.06-.36-.23-.9-.87-.9l-12.88-.02.04-10.42,15.82-1.25Z" fill="#fcfdfd"/><path d="M655.28,555.95l-9.46,24.4-9.23-23.22c-.49-1.23-.99-2.18-2.57-1.54l10.33,26.23c.25.65.7,1.04,1.04,1.17.42.16,1.32.09,1.57-.53l10.48-26.82c-.85-.78-1.88-.37-2.15.31Z" fill="#fcfdfd"/><path d="M311.33,556.6v-1.02s-16.77-.24-16.77-.24l.02,27.36c.92.29,1.78-.06,1.79-.36l.34-12.55,12.16-.12c.78,0,.9-1.5.44-1.51l-12.79-.35.05-10.6,14.75-.61Z" fill="#fcfdfd"/><path d="M346.23,555.28l-17.18.14c-.92,0-1.37.21-1.46.97-.05.39.22.79.86.79h8.18s.03,25.56.03,25.56c1.58.19,1.89-.59,1.89-1.82v-23.84s8.23.03,8.23.03c.97,0,1.13-.96.86-1.34-.36-.51-.74-.5-1.4-.49Z" fill="#fcfdfd"/><path d="M728.34,580.87l-13.63-.18-.11-25.33c-1.4-.29-1.81.44-1.8,1.26l.06,25.99,15.75-.05c.2-.65-.01-1.6-.27-1.69Z" fill="#fcfdfd"/><path d="M878.87,571.18c4.85-1.05,7.07-4.37,6.58-8.74-.45-3.93-3.07-6.8-7.24-6.85l-12.29-.17v27.08c.01.44,1.85.46,1.86-.16l.16-10.98,8.73-.21,6.96,11.09c.59.95,2.15.63,2,.18l-6.75-11.24ZM867.93,569.59v-12.33c7.89-.51,15.14-1.39,15.83,5.37.22,2.18-.35,5.09-3,5.98-4.28,1.44-8.57.86-12.83.97Z" fill="#fcfdfd"/><path d="M476.52,562c-.58-4.04-4.01-6.46-8.51-6.5l-10.97-.1v26.36c0,.65.54,1.12.91,1.12.39,0,.88-.46.88-1.09l.05-10.44,9.04.03,6.24,10.13c.73,1.18,1.63,1.62,2.7,1.04l-6.92-11.37c4.93-1.08,7.2-4.74,6.57-9.17ZM458.89,569.59l.13-12.57,10.82.33c3.39.1,5.14,3.33,4.95,6.35-.19,3.09-2.11,5.64-5.92,5.71l-9.98.19Z" fill="#fcfdfd"/><path d="M265.07,555.47c-5.85-1.26-12.13,1-14.78,6.97-2.31,5.21-1.85,11.57,1.96,16.33,3.72,4.64,10.13,5.14,15.12,2.99,4.92-2.11,7.33-7.19,7.37-12.81.05-6.42-3.52-12.14-9.68-13.47ZM262.03,581.37c-6.68.28-11.65-5.43-11.5-12.45.1-4.74,2.22-8.96,6.16-10.95,4.19-2.12,9.53-1.6,12.97,1.74,2.2,2.14,3,4.97,3.3,8.27.68,7.48-4.15,13.1-10.94,13.39Z" fill="#fcfdfd"/><path d="M568.49,555.43l-10.37-.03c-.86,2.39-.01,4.55-.05,6.81l-.32,20.5,8.32-.12c3.61-.05,7.8-.38,10.51-3.4,3.73-4.15,4.53-10.22,3.02-15.19-1.54-5.09-5.86-8.55-11.12-8.57ZM571.51,580.22c-3.97,1.07-8.05.83-11.92.69l-.09-12.57.2-11.31c3.97-.29,8.16-.46,12.03.73,4.92,1.51,6.69,6.34,6.69,11.18,0,4.84-1.63,9.85-6.9,11.27Z" fill="#fcfdfd"/><path d="M748.8,558.83c-5.29,5.59-5.17,15.12.25,20.59,4.9,4.95,13.98,4.87,18.62-.77,4.8-5.84,4.29-14.95-.82-20.08-4.75-4.78-13.41-4.64-18.04.27ZM766.78,577.03c-2.4,3.57-6.2,4.5-9.95,4.21-3.24-.25-6.7-1.93-8.57-5.41-2.63-4.91-2.28-11.57,1.71-15.86,3.88-4.16,11.21-4.52,15.38-.55,4.68,4.46,5.02,12.24,1.42,17.61Z" fill="#fcfdfd"/><path d="M426.12,555.34c-.84.1-.79.91-1.14,1.78l-10.42,25.31c.92.82,1.92.13,2.39-.95l2.78-6.39,14,.06,2.92,6.86c.22.52.79.73,1.06.87.18.09,1.06-.35.95-.61l-10.44-25.49c-.44-1.08-1.04-1.55-2.1-1.43ZM420.54,573.22l6.08-15.6,6.18,15.49-12.26.1Z" fill="#fcfdfd"/><path d="M802.91,555.61l-12.15-.19-.03,26.34c0,.66.58,1.12.94,1.11.38,0,.92-.43.93-1.11l.17-9.99,9.35-.25c2.84-.08,5.05-1.13,6.37-2.88,1.34-1.77,1.74-4.19,1.46-6.52-.48-3.89-3.08-6.44-7.04-6.5ZM805.23,569.06c-4,1.52-8.31.89-12.48.82l-.09-12.76c4.05-.42,8.35-.61,12.39.62,2.37.72,3.14,3.46,3.21,5.46.08,1.97-.5,4.89-3.04,5.86Z" fill="#fcfdfd"/><path d="M826.81,617.51l-.06,16.79c0,.82-2.14,1.05-2.15.42l-.31-12.13-4.76,11.29c-.34.81-.88,1.16-1.52,1.17-1.05.03-1.23-.73-1.65-1.67l-4.51-10.12-.24,11.67c-.95.18-1.57.19-2.5,0l.08-17.47c.77-.36,2.77-.43,3.1.29l5.75,12.73,5.38-12.42c.44-1.02,2.33-1.06,3.39-.57ZM741.74,617.43l-.41,12.46-7.1-10.58c-.85-1.27-2.57-2.79-3.91-1.81l-.2,15.73c-.01,1.02.4,1.57.98,1.8.43.17,1.45.07,1.48-.51l.46-12.16,8.51,12.28c.53.76,2.51.59,2.52-.51l.08-16.66c-.85-.2-1.5-.2-2.42-.03ZM534.86,617.43l-.47,12.54-7.54-11.44c-.64-.98-1.23-1.36-2.18-1.28-1.39.11-.98,1.39-1,2.44-.12,6.91-1.24,18.3,1.98,15.11.3-.3.53-.81.54-1.56l.19-10.63,8.22,12c.31.46,1.31.44,1.66.36.34-.08,1.05-.4,1.05-1.44v-16.1c-.94-.2-1.63-.19-2.44,0ZM314.03,617.32c-.2-.14-1.37-.06-1.4.19l-.51,12.52-8.47-12.41c-.38-.56-1.98-.47-2.68-.16l.06,16.86c0,.76,2.03,1.01,2.16.53l.61-13.16,8.63,12.94c.5.74,1.95.69,1.98-.39l.36-15.46c.02-.73-.43-1.23-.73-1.45ZM762.92,627.75l1.85-.04c1.16-.02,2.14.18,2.44.61.31.44.63,1.77.17,2.57-1.25,2.15-4.64,2.32-7.01,1.3-1.88-.81-2.99-3.23-3.24-5.76-.26-2.65,1.1-5.39,3.11-6.3,4.95-2.23,6.86,2.02,8.15,2.24.76.13,1.1-.58.98-1.04-.06-.25,0-.84-.43-1.36-2.88-3.56-9.36-3.99-12.31-.06-2.64,3.52-2.55,8.58-.29,12.2,2.25,3.6,7.17,3.48,10.4,1.97.82.22,2.98.8,3.01-.35l.2-8.53-7.24.88c-.45.05-.37,1.69.21,1.68ZM333.51,626.08c-.41.04-.33,1.63.2,1.63h1.97c.85,0,2.56-.2,2.64.39.21,1.6-.01,2.74-.61,3.63-.95,1.43-5.82,1.68-8.02-.65-2.34-2.49-2.1-10.24,2.16-11.3,2.95-.73,5.07.18,7.01,2.68.4.51,1.49-.71,1.36-1.18l-.38-1.41c-3.06-3.41-8.81-3.61-12.05-.26-2.51,2.6-3.33,10.39,1.61,14.28,2.27,1.78,5.8.98,8.07.19.87.03,3.49,1.09,3.51-.4-.03-2.67-.55-5.24.3-8.36l-7.78.75ZM557.12,625.25l-4.06-1.04c-1.57-.4-2.02-1.61-1.82-2.9.19-1.18,1.11-1.61,2.52-1.69,4.41-.26,4.73,3.4,6.44,2.51.6-.31.63-1.46.07-2.25-2.26-3.2-7.39-3.61-10.3-.96-1.44,1.31-1.88,3.48-1.24,4.92,1.8,4.02,8.93,2.11,9.92,5.78.56,2.07-1.76,3.44-3.35,3.56-2.9.21-3.89-2.57-5.57-3.54-.43-.24-1.69.48-1.5,1.17.95,3.55,4.62,4.7,7.93,4.22,2.89-.42,4.89-2,5.06-4.58.17-2.48-1.13-4.44-4.11-5.2ZM659.62,619.7c.24-.82.25-1.47,0-2.37h-10.96s-.01,17.69-.01,17.69h9.81c.91-.01,1.36-.8,1.21-1.41-.1-.41-.5-.89-1.21-.9l-7.3-.05.02-5.52,6.9-.15c.9-.02,1-1,.92-1.33-.1-.4-.46-.92-1.17-.92l-6.64-.07c-.22-1.73-.23-3.18.03-4.9l8.41-.07ZM368.38,622.8c-.86-1.66.43-3.03,1.69-3.38,4.05-1.14,4.62,3.39,7.52,2.79-.2-3.78-3.38-5.31-6.89-4.96-2.94.29-5.38,1.8-5.36,4.66.06,6.66,10.23,3.57,10.27,8.22.02,2.08-2.4,3.16-3.91,3.04-4.22-.34-4-3.78-5.55-3.53-.59.1-1.27.96-.92,1.69,1.21,2.55,3.52,3.73,5.79,3.8,2.56.08,4.65-.44,6.33-2.68.98-1.31,1.12-3.45.14-5-1.92-3.04-7.88-2.26-9.12-4.65ZM889.92,620.01c6.07-2.12,7.51,4.58,8.96,2.26.34-.55.24-1.27-.38-2.06-2.9-3.74-9.42-4.26-12.6-.2-2.87,3.65-2.62,9.58.64,12.94,3.26,3.36,9.31,2.54,11.93-.74.79-.98.67-1.95.1-2.38-1.6-1.21-3.24,4.53-8.63,2.55-2.31-.85-3.23-3.15-3.27-5.86-.04-2.91.65-5.59,3.24-6.49ZM447.21,617.67l-.03,2.45c-.05,3.92.71,7.64-.92,11.1-1.18,2.5-6.42,2.13-7.27-.64-1.81-5.84.64-13.13-1.84-13.34-.53-.05-1.45.32-1.43,1.38l.18,9.95c.07,4.15,2.87,6.86,7.07,6.55,3.51-.26,6.62-2.42,6.62-6.26l-.03-11.27c-.34-.53-2.34-.46-2.35.08ZM212.88,617.62l-.25,11.83c-.05,2.35-2.07,3.31-3.9,3.35-1.67.03-4.39-.5-4.44-2.74l-.26-12.62c-.73-.18-1.38-.24-2.42,0l.28,13.28c.07,3.52,4.22,4.6,7.42,4.35,2.52-.2,5.71-2.35,5.75-5.5l.15-12.09c-.7-.38-2.11-.28-2.33.15ZM612.64,629.83c-1.68-1.29-2.47,4.16-8.19,2.72-2-.5-3.42-2.85-3.65-5.7-.27-3.34.7-5.95,3.22-6.82,5.13-1.76,6.55,1.68,7.75,2.54.31.22,1.31.05,1.27-.53-.19-2.97-3.06-4.73-5.94-4.79-2.56-.05-4.69.36-6.43,1.94-3.51,3.19-3.79,12.69,2.4,15.3,3.21,1.35,7.75.36,9.72-2.72.54-.84.29-1.59-.16-1.94ZM921.1,617.33l-12.68.05c-.29.26-.29,1.46-.01,1.73,1.82.08,3.49.12,5.42.85l.07,13.83c0,.82.57,1.06.9,1.22.41.2,1.5.05,1.52-.49l.66-14.79,4.45-.29c.75-.05.94-.64.85-1.14-.07-.4-.46-.98-1.19-.97ZM706.11,617.4l-13.68.04c-.44.39.06,1.62,1.05,1.77l4.73.7.15,14.95c.45.48,2.26.2,2.27-.77l.1-14.25,3.68-.14c.83-.03,1.26-.32,1.61-.47.43-.17.48-1.84.09-1.83ZM459.62,617.46c-.46,0-.36,1.85.43,1.79,1.66-.13,3.1-.2,4.78.29l.27,15.32c.4.46,2.26.21,2.27-.76l.22-14.57,5.24-.41c.29-.23.31-1.5.01-1.75l-13.23.09ZM250.38,632.68l-6.95-.07-.02-15.18c-.97-.22-1.61-.22-2.47,0l.12,17.44,9.59.13c.92.01,1.36-.74,1.19-1.38-.09-.36-.5-.92-1.46-.93ZM424.75,632.81l-6.83-.22-.04-15.15c-.95-.18-1.55-.2-2.48-.03l.13,17.43,9.62.15c.86.01,1.33-.75,1.02-1.17-.19-.26-.66-1-1.43-1.02ZM795.16,617.53l.06,16.77c0,1.09,2.74,1.09,2.74-.15l-.03-16.06c0-.9-2.33-1.21-2.77-.56ZM716.09,635.07h2.44v-17.81h-2.44v17.81ZM482.83,634.98h2.43s0-17.66,0-17.66h-2.43s0,17.66,0,17.66ZM226.84,634.99h2.44v-17.67h-2.44v17.67ZM286.81,634.96h2.46s.02-17.63.02-17.63h-2.46s-.02,17.63-.02,17.63ZM571.46,631.55l.05,3.45,2.49-.04-.05-3.45-2.49.04ZM933.35,632.36c-.18-.5-1.74-.71-2.19.05-.53.89-.33,2.23.15,2.49.59.31,1.57,0,1.85-.42.34-.5.41-1.49.19-2.12ZM188.51,625.53c1.3,1.66,2.81,3.12,2.31,5.59-.38,1.9-1.92,3.77-4.58,3.8l-8.42.09v-17.65s8.33.18,8.33.18c1.96.04,3.26,1.57,3.8,2.68,1.06,2.18-.51,3.98-1.44,5.3ZM180.36,624.56c2.24.27,4.27.29,6.75-.07,1.26-2.03.52-4.27-1.67-5-1.12-.38-3.81-.8-4.67.11-1.06,1.13-.57,3.5-.41,4.96ZM187.47,627.44c-2.31-.87-4.76-.33-7.11-.34-.24,1.98-.26,3.53.02,5.46,2.45.98,5.11.98,7.6-.57.73-1.32.74-4.08-.51-4.56ZM633.93,627.88l2.96,6.22c.15.31-.49.9-.82.84-2.69-.53-2.59-4.41-4.88-6.29-1.01-.83-3.12-.44-4.47-.2l-.12,6.5-2.42-.02.07-17.55c3.35,0,6.68-.45,9.85.44,2.26.63,2.96,2.78,3.01,4.69.06,2.15-1.03,3.97-3.19,5.38ZM634.7,622.53c.01-1.35-.73-2.46-2.4-3-1.29-.42-4.58-.92-5.26.36-.94,1.74-.28,4.07-.31,5.89,1.8.23,3.59.32,5.6-.04,1.83-.33,2.36-1.96,2.37-3.21ZM275.96,626.18c-.01,4.79-2.69,8.56-7.17,8.64l-7.07.14v-17.58s7.15.14,7.15.14c4.44.08,7.1,4.01,7.08,8.67ZM271.3,620.74c-2-1.75-4.66-1.6-7.19-1.56l.08,13.41c2.13.09,4.96.8,6.92-.78,3.3-2.66,3.13-8.51.19-11.07ZM512.48,624.09c.78,3.57-.32,7.09-3.45,9.41-2.71,2.01-6.31,2.1-8.98.58-4.51-2.56-5.48-10.75-1.41-14.74,1.95-1.92,4.39-2.46,7.48-1.94,3.32.57,5.74,3.87,6.36,6.69ZM510.32,625.63c-.21-2.5-1.82-5.27-4.54-6.27-1.93-.7-3.85.4-5.21,1.38-2.5,1.79-3.04,8.66-.02,10.92,1.27.95,3.31,2.18,5.48,1.25,3.01-1.29,4.52-4.47,4.28-7.28ZM404.57,626.19c.04,5.49-3.8,8.96-8.49,8.97-4.91.02-7.92-4.28-7.83-9.28.1-4.96,3.22-8.41,7.9-8.69,4.73-.28,8.38,3.6,8.41,9ZM401.95,623.46c-1.03-3.05-4-4.8-6.77-4.08-3.08.8-4.39,3.35-4.49,6.51-.12,3.56,1.39,6.47,4.99,7.17,3.01.59,5.91-1.77,6.56-5.39.31-1.72.19-2.82-.28-4.21ZM869.33,618.94l6.01,15.39c-.51.29-1.69.37-2.29.25-.99-3.1-3.01-3.8-5.76-3.85-5.32-.11-3.74,2.86-5.93,4.25-.52.33-1.95-.09-1.56-1.11l6.22-16c.28-.72,1.52-.74,2.07-.5.57.25.9.71,1.24,1.58ZM870.59,628.71l-3.03-7.28c-1.6,2.46-2.25,4.79-2.81,7.4,2.17.24,3.55.38,5.84-.11ZM684.18,633.3c.27.68.2,1.47-.32,1.66-.58.21-1.6.11-1.92-.68l-1.34-3.37-7.25.13c-1.12.02-.83,2.79-2.35,3.96-.37.28-2.2-.21-2.02-.67l5.92-15.28c.33-.86.58-1.43,1.14-1.66.59-.25,1.79-.22,2.06.49l6.07,15.43ZM679.54,628.69c-.7-3.24-1.54-5.46-3.01-7.77l-2.75,7.9c2.04.2,3.52.35,5.76-.13ZM851.39,623.11c-.18,3-2.79,5.19-6.11,5.22l-4.24.05-.11,6.58c-.88.13-1.49.13-2.48-.04l.04-17.58,7.4-.02c3.3,0,5.67,2.82,5.5,5.78ZM847.4,620c-1.47-.92-5.06-1.53-6.04-.1-1.01,1.57-.34,4.15-.25,5.75,2,1.01,4.38,1.09,6.52-.28,1.85-1.18,1.62-4.21-.23-5.38Z" fill="url(#linear-gradient-3)"/><path d="M58.05,455.98l-23.17,35.98-23.31-35.96H0s.02,61.94.02,61.94l12.45.02v-40.69s19.15,29.67,19.15,29.67c2.19.57,4.24.63,6.25-.14l19.36-29.51.25,40.63,12.43.02-.04-62-11.82.02Z" fill="#fcfdfd"/><path d="M314.11,482.24l-23.59-1.53c-3.9-.25-6.96-1.59-7.63-5.58-.46-2.76.91-7.52,4.64-7.56l22.56-.25c4.16-.05,7.11,3.05,6.72,7.37l11.63.02c1.69-9.76-5.19-18.65-15.1-18.65l-27.34.02c-6.93,0-12.67,4.65-14.47,11.26-1.5,5.55-1.24,11.68,1.5,16.83,2.27,4.28,7.13,6.7,11.99,7.02l26.25,1.74c4.06.27,6.33,3.48,6.12,7.42-.17,3.24-2.03,6.05-5.53,6.05h-23.78c-3.94-.01-6.48-3.4-5.83-7.6h-11.66c-1.59,10.3,5.16,19.01,15.34,18.97l28.85-.11c9.47-.04,14.97-7.94,14.71-16.68-.12-4.3.08-8.47-2.54-12.05-2.98-4.07-7.77-6.38-12.85-6.71Z" fill="#fcfdfd"/><path d="M511.09,484.27c-3.79-1.79-7.84-2.37-12.06-2.61l-20.28-1.16c-4.26-.24-6.58-3.3-6.16-7.48.32-3.22,2.37-5.72,5.9-5.71l21.4.02c4.13,0,7,3.02,6.55,7.42l12.09-.04c.55-10.11-5.87-18.69-15.35-18.67l-27.81.06c-6.52.01-11.74,4.13-13.84,10.27-2.09,6.13-1.72,13.46,1.92,19.01,2.42,3.69,7.02,5.54,11.37,5.82l26.25,1.69c3.95.25,6.18,3.01,6.18,6.88,0,3.73-2.22,6.65-6.16,6.66l-22.63.06c-4.73.01-6.82-2.83-6.98-7.73l-11.31-.07c-1.64,9.9,5.21,19.13,15.58,19.1l28.59-.1c7.76-.03,13.74-6.13,14.64-13.84l.04-8.45c.03-4.99-3.43-8.99-7.95-11.12Z" fill="#fcfdfd"/><polygon points="423.22 467.36 423.13 455.93 369.46 455.92 369.47 517.96 423.11 518 423.19 506.34 382.17 506.35 382.07 492.1 410.39 491.96 410.38 480.94 382.12 480.96 382.17 467.33 423.22 467.36" fill="#fcfdfd"/><rect x="216.91" y="455.89" width="12.49" height="62.17" fill="#fcfdfd"/><path d="M875.81,499.77c.98,9.01-4.83,17.41-14.6,18.03l-29.79.04c-10.03.01-16.49-9.6-14.69-19.09l11.28.04c-.06,3.08,1.62,7.43,5.08,7.45l25.59.14c3.51.02,5.12-3.65,5.05-6.54-.1-4.31-2.57-6.82-6.76-7.04l-14.78-.76c-11.85-.61-23.36-.34-24.89-14.06-.72-6.48-.09-13.13,4.85-17.9,3.29-3.19,7.98-4.1,12.53-4.11h22.46c4.95-.01,10.21.99,13.55,4.79,3.44,3.91,4.55,9.21,3.76,13.94l-11.87-.23c-.12-1.7-.07-3.63-.88-4.87-.66-1.01-2.5-2.22-4.25-2.21l-23.11.12c-3.27.02-4.6,3.75-4.63,6.49-.04,3.46,1.72,6.26,5.45,6.51,9.72.66,19.52.53,29.06,2.54,7.9,2.04,12.74,8.65,11.58,16.72ZM1070.49,497.41c-.28-7.64-5.12-14.11-13.01-14.74l-26.43-2.11c-3.52-.28-6.36-2.33-6.59-5.89-.2-3.01,1.13-7.12,4.57-7.15l22.54-.18c1.89-.02,3.75.66,4.6,1.83,1.03,1.42,1.05,3.25,1.12,5.32l11.85.19c1.03-5.59-.73-12.05-5.51-15.64-3.14-2.36-6.87-3.09-10.66-3.09l-22.96.02c-4.51,0-9.4.81-12.74,3.89-5.07,4.67-5.74,11.42-5.13,17.79,1.28,13.33,11.33,13.5,22.93,14.22l15.97,1c2.27.14,4.26.81,5.55,2.22,1.4,1.51,1.89,3.62,1.67,5.82-.33,3.38-2.64,5.59-6.07,5.55l-24.4-.25c-3.4-.03-5.05-4.49-4.91-7.55l-11.17-.04c-1.82,9.44,4.39,19.19,14.39,19.23l28.26.12c4.02.02,8.14-1.63,10.78-3.98,4.86-4.33,5.59-10.48,5.37-16.59ZM661.81,497.25l13.28,20.5-13.37.38-12.29-19.13c-.42-.66-2.07-.79-2.79-.79l-19.17.02-.15,19.81-12.19-.13v-61.57s23.14-.3,23.14-.3l11.05.16h8.59c6.86-.02,12.53,3.72,15.03,10.21,1.97,5.1,1.42,10.72,1.05,16.22-.48,7.16-4.95,12.44-12.18,14.61ZM660.15,469.94c-1.13-1.78-3.91-2.55-5.92-2.54l-26.81.04.02,19.36,27.39.07c2.52,0,5.04-1.26,6.19-3.92,1.81-4.2,1.49-9.27-.86-13ZM958.36,474.87l20.22,42.91-12.84.3-5.96-12.14-34.06-.02-5.54,12.01-12.9.06,11.74-25.27,17.63-36.74,12.39-.07,9.33,18.95ZM955.2,495.14l-11.68-25.88-4.43,8.02-7.97,17.99,24.07-.13ZM777.68,471.15l.03,30.96c0,8.33-6.86,15.78-15.4,15.83l-31.65.18c-8.7.05-16.71-6.6-16.71-15.65v-31.09c0-9.62,8.04-15.51,17.04-15.51l28.71.02c9.11,0,17.97,5.36,17.98,15.27ZM765.41,474.94c0-4.24-2.77-7.6-7.12-7.59l-25.67.06c-3.58,0-6.16,3.11-6.15,6.63l.08,26.95c0,2.94,3.21,5.4,6.05,5.4l27.67.05c3.75-1.54,5.12-4.57,5.13-8.19l.02-23.31Z" fill="url(#linear-gradient-4)"/><path d="M158.98,456.07h-32.2c-8.65-.02-15.72,6.8-15.74,15.56l-.08,30.53c-.02,8.61,6.41,14.39,14.77,15.66l33.67-.12c8.7-.03,14.35-6.81,15.5-14.94l-.06-31.15c-.02-8.65-7.28-15.54-15.87-15.54ZM156.03,506.32l-25.97.07c-3.59,0-6.96-2.64-6.95-6.4l.06-25.92c0-3.92,3.19-6.66,6.95-6.66h25.69c3.39,0,6.59,2.46,6.61,6.09l.15,25.63c.02,3.82-2.4,7.18-6.54,7.19Z" fill="#fcfdfd"/></g></svg>