<?xml version="1.0" encoding="UTF-8"?><svg id="Layer_2" xmlns="http://www.w3.org/2000/svg" xmlns:xlink="http://www.w3.org/1999/xlink" viewBox="0 0 608.47 416.47"><defs><linearGradient id="linear-gradient" x1="501.89" y1="47.24" x2="385.34" y2="322.38" gradientUnits="userSpaceOnUse"><stop offset="0" stop-color="#06b6ed"/><stop offset="1" stop-color="#0434a5"/></linearGradient><linearGradient id="linear-gradient-2" x1="285.63" y1="262.29" x2="219.31" y2="434.21" xlink:href="#linear-gradient"/></defs><g id="Layer_1-2"><polygon points="193.52 183.94 198.79 189.02 215.91 205.54 231.83 220.82 240.92 229.24 193.44 281.57 151.27 241.96 67.45 162.97 67.39 386.91 .07 386.75 0 0 16.01 14.89 93.86 88.7 116.89 110.54 176.82 168.01 193.52 183.94" fill="#fcfdfd"/><path d="M513.79,386.88l-93.69-.03-96.11-107.5-49.01-54.99,14.77-15.44,33.27-35.67,33.35,35.03,14.49,15.11c25.88,27.31,50.97,54.91,75.44,83.6l44.22,51.89,23.27,28.01Z" fill="#fdfdfd"/><path d="M325.77,38.06c25.23-.54,51.37-.51,76.62-.03h22.58c14.15-.51,28.78-.49,42.95-.03,10.73,0,21.03,2.64,31.51,6.52,26.55,9.84,48.84,29.14,62.08,54.21,8.6,16.29,13.48,33.71,14.34,51.96v12.91c-1,27.62-12.17,52.68-30.83,72.95-9.88,10.73-21.89,18.98-35.2,25.25l9.28,11.64,9.38,11.38,13.4,16.7,12.55,16.18c1.97,2.54,4.7,4.3,6.19,7.27l17.91,22.55,29.93,39.4c-26.16.14-52.31.03-78.45-.32l-23.16-28.76-47.71-57.55c-18.37-22.16-37.17-43.36-56.71-64.43l-18.6-20.05-8.48-9.29,64.02-.4,26.56-.46c15.5-1.11,28.2-10.26,35.53-23.83,10.88-20.13,6.45-45.47-10.58-60.78-6.4-5.83-13.81-8.47-22.02-11.13-30.77.21-61.52.17-92.27-.11l-10.38.25-16.07.11-13.63,13.96-9.5,10.25-81.12,89.42-5,5.47-1.34.43c-15.57-14.6-31.01-29.36-46.32-44.28l.25-1.46c1.8-3.03,4.17-5.09,6.56-7.74l41.19-45.65,24.57-27.61,56.6-63.19c1.18-1.32,1.96-1.69,3.32-1.69Z" fill="url(#linear-gradient)"/><path d="M468.88,109.9l-90.97.44c-.8,0-1.1-.24-1.3-.55l92.27.11Z" fill="#0281da"/><path d="M608.47,386.91l-76.27.23c-.83,0-1.85-.15-2.17-.55l78.45.32Z" fill="#0134aa"/><path d="M402.39,38.02l-76.62.03c.22-.35.54-.6,1.31-.6h74.02c.77,0,1.09.24,1.3.57Z" fill="#029ee6"/><path d="M467.93,38l-42.95.02c.19-.32.57-.57,1.26-.57h40.43c.68,0,1.07.25,1.27.55Z" fill="#029ee6"/><path d="M276.71,304.34l-7.08,18.23-.03.07-11,28.91h0s0,0,0,0l-13.42,35.13-9.58,24.09c-.87,2.19-2.47,4.78-4.82,5.52-2.38.75-5.88-.96-6.88-3.11-1.26-2.73-.2-5.62.86-8.34l22.45-57.73s0,0,0,0l11.85-29.75-.04.14.05-.14,5.23-15.01c.66-1.9,1.69-3.66,2.8-4.51,1.7-1.31,3.97-1.15,6.07-.64,2.76.66,4.64,4.28,3.54,7.14ZM196.01,377.27l-14.05-13.42-7.02-6.81,9.09-8.85,8.37-8.21s0,0,0,0c0,0,0,0,0,0,1.02-1,1.68-2.39,3.06-2.98,2.53-1.08,4.24-3.65,6.16-5.59,1.29-1.3,2.92-2.23,3.97-4.49-4.13-4.38-8.22-10.1-10.92-7.33l-7.83,8.04h0c-.35.02-.99.13-1.39.52l-12.1,11.8-15.15,14.82c-.77.75-1.3,1.77-1.28,2.64.02.86.72,2.18,1.58,2.95l9.66,8.68,15.01,14.38,12.51,12.06c.83.8,2.53.08,3.22-.61l6.75-6.79c.5-.51-.43-1.95-.85-2.37l-8.77-8.46ZM340.03,354.51l-6.27-6.03-11.18-10.83c-.77-.74-1.3-1.47-2.34-1.5h0s-7.65-7.51-7.65-7.51l-10.96-10.36-9.17,8.77,8.68,8.69s0,0,0,0l6.35,5.96,9.98,9.6,5.96,5.68c-.71,1.56-2.16,2.04-3.22,3.07l-15.22,14.76-12.63,12.36c2.51,3.48,5.5,6.23,9.15,8.7l6.53-5.78,14.69-14.02,10.63-10.24c3.88-3.74,10.43-7.7,6.65-11.33Z" fill="url(#linear-gradient-2)"/></g></svg>